<svg xmlns="http://www.w3.org/2000/svg" viewBox="0 0 526 520" xml:space="preserve" version="1.1" xmlns:xlink="http://www.w3.org/1999/xlink">
  
<path fill="#C8922A" d="M 126 335 C 88.57 367.701 59.263 402.461 36.457 443.678 C 84.821 435.858 130.827 419.841 174.998 397.562 C 158.09 381.673 142.755 363.27 126.302 335.102 M 442.7633 363.5732 C 461.903 380.427 478.633 400.078 490.318 421.853 C 461.107 417.073 428.974 409.372 404.543 398.219 M 204.0109 124.0328 C 200.862 101.462 202.959 60.987 209.086 35.993 C 228.695 53.308 244.42 73.17 254.351 96.344"></path>

<path fill="#F8F8F8" d="M 210.491 119.799 C 124.003 169.836 94.978 250.168 129.942 343.243 C 190.681 456.064 307.754 457.922 382.342 414.012"></path>

  <path fill="#E4E4E4" d="M 478.664 250.854 c -2.44 104.699 -68.876 175.691 -165.128 179.082 s -174.608 -82.636 -175.196 -160.761 S 184.981 89.576 310.06 88.929 S 479.747 212.915 478.054 252.187 z"></path>

<path fill="#F8F8F8" d="M 463.39 253.7 C 460.524 333.413 402.654 374.09 333.582 375.712 s -132.301 -61.747 -130.424 -127.909 S 264.292 121.696 335.545 121.064 s 127.764 58.44 127.808 132.639 z"></path>
  
</svg>